<?xml version="1.0" encoding="utf-8"?>
<!-- Generator: Adobe Illustrator 19.0.0, SVG Export Plug-In . SVG Version: 6.00 Build 0)  -->
<svg version="1.1" id="Layer_1" xmlns="http://www.w3.org/2000/svg" xmlns:xlink="http://www.w3.org/1999/xlink" x="0px" y="0px"
	 viewBox="0 0 188.3 45" style="enable-background:new 0 0 188.3 45;" xml:space="preserve">
<style type="text/css">
	.st0{fill:#F15F22;}
	.st1{fill:#091935;}
</style>
<g id="XMLID_4_">
	<g id="XMLID_108_">
		<g id="XMLID_117_">
			<path id="XMLID_118_" class="st0" d="M37.3,45H0V16L18.7,0l18.7,16V45z M1.9,43.1h33.5V16.9L18.7,2.5L1.9,16.9V43.1z"/>
		</g>
		<g id="XMLID_115_">
			<polygon id="XMLID_116_" class="st0" points="18.7,15.9 10.2,8.6 11.6,7.3 18.7,13.4 25.9,7.1 27.5,8.3 			"/>
		</g>
		<g id="XMLID_113_">
			<polygon id="XMLID_114_" class="st0" points="18.7,27.8 3.2,14.5 4.7,13.3 18.7,25.3 32.7,13.2 34.1,14.5 			"/>
		</g>
		<g id="XMLID_111_">
			<polygon id="XMLID_112_" class="st0" points="18.7,37.7 0.3,22 1.6,20.5 18.7,35.2 35.8,20.5 37,22 			"/>
		</g>
		<g id="XMLID_109_">
			<polygon id="XMLID_110_" class="st0" points="12.7,43.8 0.3,33.2 1.6,31.8 15.2,43.5 22.4,43.3 35.8,31.8 37,33.2 24.7,43.8 			
				"/>
		</g>
	</g>
	<g id="XMLID_56_">
		<path id="XMLID_105_" class="st1" d="M61.3,35l-1.7-5.1h-6.8L50.9,35h-4l7.8-19.1h3.4L65.4,35H61.3z M56.3,20l-2.5,7.1h4.8
			L56.3,20z"/>
		<path id="XMLID_103_" class="st1" d="M93,35V19.8L87.7,35h-3.8l-5.4-15.2V35h-3.5V15.9H81L85.9,30l5-14.1h5.9V35H93z"/>
		<path id="XMLID_62_" class="st1" d="M115.9,35h-7.7V15.9h6.8c3.6,0,6.4,1.2,6.4,5.3c0,2-1.3,3.3-3,3.8c2.4,0.3,3.9,1.7,3.9,4.4
			C122.3,33.8,119.3,35,115.9,35z M114.9,18.7h-3v5h3.5c1.3,0,2.2-0.9,2.2-2.6C117.6,19.9,117,18.7,114.9,18.7z M115.4,26.6h-3.5
			v5.6h3.8c1.4,0,2.7-0.6,2.7-2.7C118.5,27.2,117.1,26.6,115.4,26.6z"/>
		<path id="XMLID_60_" class="st1" d="M132.6,35V15.9h11.3v2.9h-7.6v4.9h7v2.9h-7v5.6h7.9V35H132.6z"/>
		<path id="XMLID_57_" class="st1" d="M166,35l-5.8-8h-0.8v8h-3.7V15.9h7.2c3,0,6.5,1,6.5,5.5c0,2.6-1.2,5-4.7,5.5l6,8.1H166z
			 M162.9,18.7h-3.6v5.4h3.6c1.7,0,2.5-1.2,2.5-2.8C165.5,19.8,164.7,18.7,162.9,18.7z"/>
	</g>
	<g id="XMLID_47_">
		<path id="XMLID_54_" class="st1" d="M175.4,19.7v-3.8h0.7v3.8H175.4z"/>
		<path id="XMLID_52_" class="st1" d="M181.3,15.9h0.7v3.8h-0.4v0l-2-2.6v2.6h-0.7v-3.8h0.6l1.9,2.4V15.9z"/>
		<path id="XMLID_50_" class="st1" d="M185.6,16.5h-1.2v-0.7c1.1,0,2,0,3.1,0v0.7h-1.2v3.1h-0.7V16.5z"/>
		<path id="XMLID_48_" class="st1" d="M188.3,19.3c0,0.5-0.8,0.5-0.8,0C187.5,18.8,188.3,18.8,188.3,19.3z"/>
	</g>
	<g id="XMLID_5_">
		<path id="XMLID_44_" class="st1" d="M49.7,44.8L48,42.6h-0.5v2.2H47v-5h1.6c0.8,0,1.6,0.3,1.6,1.3c0,0.7-0.3,1.4-1.4,1.4l1.7,2.2
			H49.7z M48.5,40.3h-1v1.9h1c0.7,0,1-0.4,1-1C49.5,40.6,49.2,40.3,48.5,40.3z"/>
		<path id="XMLID_42_" class="st1" d="M54.5,44.8v-5h2.7v0.4h-2.2V42h2v0.4h-2v1.9h2.3v0.4H54.5z"/>
		<path id="XMLID_39_" class="st1" d="M64.9,44.8l-0.5-1.5h-2l-0.6,1.5h-0.6l2-5h0.5l1.9,5H64.9z M63.4,40.5l-0.9,2.4h1.7L63.4,40.5
			z"/>
		<path id="XMLID_37_" class="st1" d="M69.6,44.8v-5h0.6v4.5h2.3v0.5H69.6z"/>
		<path id="XMLID_35_" class="st1" d="M81.3,44.8v-5h2.7v0.4h-2.2V42h2v0.4h-2v1.9h2.3v0.4H81.3z"/>
		<path id="XMLID_33_" class="st1" d="M89.6,44.9c-0.4,0-0.9-0.1-1.3-0.2l0.2-0.5c0.4,0.1,0.7,0.3,1.2,0.3c0.6,0,1.2-0.2,1.2-1
			c0-0.7-0.6-0.9-1.3-1.1c-0.7-0.2-1.3-0.5-1.3-1.4c0-0.9,0.8-1.3,1.8-1.3c0.3,0,0.8,0.1,1.2,0.2l-0.2,0.5c-0.3-0.1-0.6-0.3-1-0.3
			c-0.7,0-1.2,0.3-1.2,0.9c0,0.5,0.5,0.7,1,0.9c0.7,0.3,1.6,0.5,1.6,1.6C91.4,44.6,90.6,44.9,89.6,44.9z"/>
		<path id="XMLID_31_" class="st1" d="M97.3,40.3v4.5h-0.6v-4.5h-1.5v-0.4h3.5v0.4H97.3z"/>
		<path id="XMLID_28_" class="st1" d="M105.6,44.8l-0.5-1.5h-2l-0.6,1.5h-0.6l2-5h0.5l1.9,5H105.6z M104.1,40.5l-0.9,2.4h1.7
			L104.1,40.5z"/>
		<path id="XMLID_26_" class="st1" d="M111.4,40.3v4.5h-0.6v-4.5h-1.5v-0.4h3.5v0.4H111.4z"/>
		<path id="XMLID_24_" class="st1" d="M116.9,44.8v-5h2.7v0.4h-2.2V42h2v0.4h-2v1.9h2.3v0.4H116.9z"/>
		<path id="XMLID_21_" class="st1" d="M132.2,44.8l-0.5-1.5h-2l-0.6,1.5h-0.6l2-5h0.5l1.9,5H132.2z M130.7,40.5l-0.9,2.4h1.7
			L130.7,40.5z"/>
		<path id="XMLID_19_" class="st1" d="M138.6,44.9c-1.7,0-2.1-1.3-2.1-2.6c0-1.5,0.6-2.6,2.2-2.6c0.3,0,0.8,0.1,1.1,0.2l-0.2,0.5
			c-0.3-0.1-0.6-0.2-0.9-0.2c-1.1,0-1.6,0.7-1.6,2.1c0,1.2,0.3,2.2,1.5,2.2c0.4,0,0.7-0.1,1-0.3v-1.4h-1.1v-0.4h1.6v2.2
			C139.6,44.8,139.3,44.9,138.6,44.9z"/>
		<path id="XMLID_17_" class="st1" d="M144.5,44.8v-5h2.7v0.4H145V42h2v0.4h-2v1.9h2.3v0.4H144.5z"/>
		<path id="XMLID_10_" class="st1" d="M154.5,44.8l-2.3-4.3v4.3h-0.5v-5h0.8l2.3,4.3v-4.3h0.5v5H154.5z"/>
		<path id="XMLID_8_" class="st1" d="M161.7,44.9c-1.5,0-2.1-1.1-2.1-2.6c0-1.4,0.5-2.6,2.1-2.6c0.4,0,0.8,0.1,1.2,0.2l-0.2,0.5
			c-0.3-0.1-0.6-0.2-1-0.2c-1.2,0-1.5,1-1.5,2.1c0,1.2,0.3,2.2,1.5,2.2c0.4,0,0.7-0.1,1.1-0.3l0.2,0.5
			C162.6,44.9,162.2,44.9,161.7,44.9z"/>
		<path id="XMLID_6_" class="st1" d="M168.8,42.6v2.2h-0.6v-2.2l-1.8-2.8h0.6l1.5,2.2l1.4-2.2h0.6L168.8,42.6z"/>
	</g>
</g>
</svg>
